<?xml version="1.0" encoding="iso-8859-1"?>
<!-- Generator: Adobe Illustrator 19.0.0, SVG Export Plug-In . SVG Version: 6.00 Build 0)  -->
<svg version="1.1" id="Capa_1" xmlns="http://www.w3.org/2000/svg" xmlns:xlink="http://www.w3.org/1999/xlink" x="0px" y="0px"
	 viewBox="0 0 512 512" style="enable-background:new 0 0 512 512;" xml:space="preserve">
<g transform="matrix(1.25 0 0 -1.25 0 45)">
	<g>
		<g>
			<path style="fill:#006600;" d="M409.6-271.2c0-25.134-20.378-45.511-45.511-45.511H45.511C20.378-316.711,0-296.334,0-271.2
				v204.8c0,25.134,20.378,45.511,45.511,45.511h318.578c25.134,0,45.511-20.378,45.511-45.511V-271.2z"/>
			<path style="fill:#BB1600;" d="M409.6-225.689H0v113.778h409.6V-225.689z"/>
			<path style="fill:#141414;" d="M364.089-20.889H45.511C20.378-20.889,0-41.266,0-66.4v-45.511h409.6V-66.4
				C409.6-41.266,389.222-20.889,364.089-20.889"/>
			<g>
				<path style="fill:#EEEEEE;" d="M409.6-123.289H0v11.378h409.6V-123.289z"/>
				<path style="fill:#EEEEEE;" d="M409.6-225.689H0v11.378h409.6V-225.689z"/>
			</g>
			<path style="fill:#FFFFFF;" d="M156.786-252.802l82.83,139.196c6.167-1.718,10.638,6.053,14.677,18.113
				c4.756,14.131,8.636,23.723,7.828,24.201c-0.819,0.489-7.384-7.509-17.556-18.409c-8.772-9.444-13.471-17.169-8.693-21.732
				l-82.807-139.173C152.451-251.619,156.171-253.872,156.786-252.802"/>
			<path style="fill:none;stroke:#141414;stroke-width:0.06;" d="M156.786-252.802l82.83,139.196
				c6.167-1.718,10.638,6.053,14.677,18.113c4.756,14.131,8.636,23.723,7.828,24.201c-0.819,0.489-7.384-7.509-17.556-18.409
				c-8.772-9.444-13.471-17.169-8.693-21.732l-82.807-139.173C152.451-251.619,156.171-253.872,156.786-252.802z"/>
			<path style="fill:#FFFFFF;" d="M252.814-252.802l-82.819,139.196c-6.167-1.718-10.638,6.053-14.689,18.113
				c-4.745,14.131-8.624,23.723-7.817,24.201c0.796,0.489,7.384-7.509,17.533-18.409c8.795-9.444,13.505-17.169,8.727-21.732
				l82.796-139.173C257.172-251.619,253.451-253.872,252.814-252.802"/>
			<path style="fill:none;stroke:#141414;stroke-width:0.06;" d="M252.814-252.802l-82.819,139.196
				c-6.167-1.718-10.638,6.053-14.689,18.113c-4.745,14.131-8.624,23.723-7.817,24.201c0.796,0.489,7.384-7.509,17.533-18.409
				c8.795-9.444,13.505-17.169,8.727-21.732l82.796-139.173C257.172-251.619,253.451-253.872,252.814-252.802z"/>
			<path style="fill:#BB1600;" d="M204.8-253.906c28.365,21.276,42.007,49.63,42.007,85.333S233.165-104.516,204.8-83.25
				c-28.353-21.265-42.007-49.618-42.007-85.322S176.447-232.629,204.8-253.906"/>
			<path style="fill:none;stroke:#141414;stroke-width:0.06;" d="M204.8-253.906c28.365,21.276,42.007,49.63,42.007,85.333
				S233.165-104.516,204.8-83.25c-28.353-21.265-42.007-49.618-42.007-85.322S176.447-232.629,204.8-253.906z"/>
			<path style="fill:#141414;" d="M171.804-213.742c6.064,13.471,9.023,28.433,9.023,45.113c0,16.668-2.958,31.642-9.023,45.124
				c-6.053-13.483-9.034-28.456-9.034-45.124C162.77-185.309,165.751-200.271,171.804-213.742"/>
			<path style="fill:none;stroke:#141414;stroke-width:0.02;" d="M171.804-213.742c6.064,13.471,9.023,28.433,9.023,45.113
				c0,16.668-2.958,31.642-9.023,45.124c-6.053-13.483-9.034-28.456-9.034-45.124C162.77-185.309,165.751-200.271,171.804-213.742z"
				/>
			<path style="fill:#141414;" d="M237.83-213.742c-6.042,13.471-9.034,28.433-9.034,45.113c0,16.668,2.992,31.642,9.034,45.124
				c6.053-13.483,9.023-28.456,9.023-45.124C246.852-185.309,243.883-200.271,237.83-213.742"/>
			<path style="fill:none;stroke:#141414;stroke-width:0.02;" d="M237.83-213.742c-6.042,13.471-9.034,28.433-9.034,45.113
				c0,16.668,2.992,31.642,9.034,45.124c6.053-13.483,9.023-28.456,9.023-45.124C246.852-185.309,243.883-200.271,237.83-213.742z"
				/>
			<g>
				<path style="fill:#FFFFFF;" d="M204.8-179.381c3.482,0,6.315,4.824,6.315,10.763c0,5.951-2.833,10.775-6.315,10.775
					s-6.303-4.824-6.303-10.775C198.497-174.557,201.318-179.381,204.8-179.381"/>
				<path style="fill:#FFFFFF;" d="M202.172-150.937c-5.712,8.408-8.488,19.081-8.488,32.097c0,13.028,2.776,23.711,8.488,32.119
					V-150.937z"/>
				<path style="fill:#FFFFFF;" d="M207.428-150.937c5.7,8.408,8.465,19.081,8.465,32.097c0,13.028-2.765,23.711-8.465,32.119
					V-150.937z"/>
				<path style="fill:#FFFFFF;" d="M202.172-186.208c-5.712-8.397-8.488-19.081-8.488-32.097c0-13.039,2.776-23.689,8.488-32.108
					V-186.208z"/>
				<path style="fill:#FFFFFF;" d="M207.428-186.208c5.7-8.397,8.465-19.081,8.465-32.097c0-13.039-2.765-23.689-8.465-32.108
					V-186.208z"/>
			</g>
		</g>
	</g>
</g>
<g>
</g>
<g>
</g>
<g>
</g>
<g>
</g>
<g>
</g>
<g>
</g>
<g>
</g>
<g>
</g>
<g>
</g>
<g>
</g>
<g>
</g>
<g>
</g>
<g>
</g>
<g>
</g>
<g>
</g>
</svg>
